<?xml version="1.0" encoding="UTF-8" standalone="no"?>
<!-- Created with Inkscape (http://www.inkscape.org/) -->
<svg
   xmlns:dc="http://purl.org/dc/elements/1.1/"
   xmlns:cc="http://creativecommons.org/ns#"
   xmlns:rdf="http://www.w3.org/1999/02/22-rdf-syntax-ns#"
   xmlns:svg="http://www.w3.org/2000/svg"
   xmlns="http://www.w3.org/2000/svg"
   xmlns:xlink="http://www.w3.org/1999/xlink"
   xmlns:sodipodi="http://sodipodi.sourceforge.net/DTD/sodipodi-0.dtd"
   xmlns:inkscape="http://www.inkscape.org/namespaces/inkscape"
   version="1.0"
   width="250"
   height="300"
   id="svg2"
   sodipodi:version="0.32"
   inkscape:version="0.46"
   sodipodi:docname="Chicken-RoundCartoon.svg"
   inkscape:output_extension="org.inkscape.output.svg.inkscape">
  <metadata
     id="metadata2492">
    <rdf:RDF>
      <cc:Work
         rdf:about="">
        <dc:format>image/svg+xml</dc:format>
        <dc:type
           rdf:resource="http://purl.org/dc/dcmitype/StillImage" />
      </cc:Work>
    </rdf:RDF>
  </metadata>
  <sodipodi:namedview
     inkscape:window-height="701"
     inkscape:window-width="1224"
     inkscape:pageshadow="2"
     inkscape:pageopacity="0.0"
     guidetolerance="10.0"
     gridtolerance="10.0"
     objecttolerance="10.0"
     borderopacity="1.0"
     bordercolor="#666666"
     pagecolor="#ffffff"
     id="base"
     showgrid="false"
     inkscape:zoom="0.76682026"
     inkscape:cx="236.38405"
     inkscape:cy="148.92676"
     inkscape:window-x="52"
     inkscape:window-y="-4"
     inkscape:current-layer="svg2" />
  <defs
     id="defs4">
    <inkscape:perspective
       sodipodi:type="inkscape:persp3d"
       inkscape:vp_x="0 : 127.13264 : 1"
       inkscape:vp_y="0 : 1000 : 0"
       inkscape:vp_z="224.65625 : 127.13264 : 1"
       inkscape:persp3d-origin="112.32812 : 84.755096 : 1"
       id="perspective2494" />
    <linearGradient
       gradientUnits="userSpaceOnUse"
       y2="16.656706"
       x2="-785.38751"
       y1="16.878105"
       x1="-776.61304"
       id="linearGradient3825"
       xlink:href="#linearGradient3819"
       inkscape:collect="always" />
    <radialGradient
       gradientUnits="userSpaceOnUse"
       gradientTransform="matrix(0.517926,2.4443536e-8,-3.9212833e-8,0.4489316,-208.63166,-91.522765)"
       r="100.02526"
       fy="-155.89888"
       fx="-411.91803"
       cy="-155.89888"
       cx="-411.91803"
       id="radialGradient3793"
       xlink:href="#linearGradient3787"
       inkscape:collect="always" />
    <radialGradient
       gradientUnits="userSpaceOnUse"
       gradientTransform="matrix(0.2121045,-0.4430781,1.0102174,0.4835979,-531.22787,-450.2596)"
       r="115.36326"
       fy="-94.644592"
       fx="-813.12628"
       cy="-94.644592"
       cx="-813.12628"
       id="radialGradient3783"
       xlink:href="#linearGradient3777"
       inkscape:collect="always" />
    <inkscape:perspective
       id="perspective2915"
       inkscape:persp3d-origin="372.04724 : 350.78739 : 1"
       inkscape:vp_z="744.09448 : 526.18109 : 1"
       inkscape:vp_y="0 : 1000 : 0"
       inkscape:vp_x="0 : 526.18109 : 1"
       sodipodi:type="inkscape:persp3d" />
    <linearGradient
       id="linearGradient3777"
       inkscape:collect="always">
      <stop
         id="stop3779"
         offset="0"
         style="stop-color:#e9c6af;stop-opacity:1" />
      <stop
         id="stop3781"
         offset="1"
         style="stop-color:#ffb380;stop-opacity:0;" />
    </linearGradient>
    <linearGradient
       id="linearGradient3787"
       inkscape:collect="always">
      <stop
         id="stop3789"
         offset="0"
         style="stop-color:#e9c6af;stop-opacity:1;" />
      <stop
         id="stop3791"
         offset="1"
         style="stop-color:#e9c6af;stop-opacity:0;" />
    </linearGradient>
    <linearGradient
       id="linearGradient3805">
      <stop
         id="stop3807"
         offset="0"
         style="stop-color:#ffffff;stop-opacity:1;" />
      <stop
         id="stop3809"
         offset="1"
         style="stop-color:#000000;stop-opacity:1" />
    </linearGradient>
    <linearGradient
       id="linearGradient3819"
       inkscape:collect="always">
      <stop
         id="stop3821"
         offset="0"
         style="stop-color:#ffffff;stop-opacity:1;" />
      <stop
         id="stop3823"
         offset="1"
         style="stop-color:#ffffff;stop-opacity:0;" />
    </linearGradient>
    <inkscape:perspective
       id="perspective2791"
       inkscape:persp3d-origin="372.04724 : 350.78739 : 1"
       inkscape:vp_z="744.09448 : 526.18109 : 1"
       inkscape:vp_y="0 : 1000 : 0"
       inkscape:vp_x="0 : 526.18109 : 1"
       sodipodi:type="inkscape:persp3d" />
    <linearGradient
       y2="501.29077"
       x2="320.22107"
       y1="215.21931"
       x1="-60.221073"
       gradientUnits="userSpaceOnUse"
       id="linearGradient3222"
       xlink:href="#linearGradient3161"
       inkscape:collect="always" />
    <linearGradient
       y2="537.005"
       x2="393.21429"
       y1="180.93361"
       x1="-133.21428"
       gradientUnits="userSpaceOnUse"
       id="linearGradient3220"
       xlink:href="#linearGradient3169"
       inkscape:collect="always" />
    <linearGradient
       y2="602.7193"
       x2="393.21429"
       y1="544.86218"
       x1="-133.21428"
       gradientTransform="matrix(1.17318,0,0,1.22714,-28.2282,-58.9006)"
       gradientUnits="userSpaceOnUse"
       id="linearGradient3218"
       xlink:href="#linearGradient3169"
       inkscape:collect="always" />
    <linearGradient
       id="linearGradient3161">
      <stop
         id="stop3163"
         offset="0"
         style="stop-color: rgb(0, 190, 255); stop-opacity: 1;" />
      <stop
         id="stop3165"
         offset="1"
         style="stop-color: rgb(0, 116, 255); stop-opacity: 1;" />
    </linearGradient>
    <linearGradient
       id="linearGradient3169">
      <stop
         id="stop3171"
         offset="0"
         style="stop-color: rgb(212, 212, 212); stop-opacity: 1;" />
      <stop
         id="stop3173"
         offset="1"
         style="stop-color: rgb(159, 150, 150); stop-opacity: 1;" />
    </linearGradient>
    <linearGradient
       id="linearGradient3274">
      <stop
         id="stop3276"
         offset="0"
         style="stop-color: rgb(255, 0, 0); stop-opacity: 1;" />
      <stop
         id="stop3278"
         offset="1"
         style="stop-color: rgb(255, 98, 98); stop-opacity: 1;" />
    </linearGradient>
    <inkscape:perspective
       id="perspective32"
       inkscape:persp3d-origin="372.04724 : 350.78739 : 1"
       inkscape:vp_z="744.09448 : 526.18109 : 1"
       inkscape:vp_y="0 : 1000 : 0"
       inkscape:vp_x="0 : 526.18109 : 1"
       sodipodi:type="inkscape:persp3d" />
  </defs>
  <g
     inkscape:label="Layer 1"
     id="g2927"
     transform="translate(-374.99947,-33.286432)" />
  <g
     id="g4177"
     transform="matrix(0.8124263,0,0,0.8124263,18.772694,51.197356)"
     inkscape:export-filename="C:\D\GFX\Inkscape\InkscapeWORK\CHICKENicon.png"
     inkscape:export-xdpi="38.709999"
     inkscape:export-ydpi="38.709999">
    <path
       id="path3943"
       d="M 65.90625,206.03125 C 59.84247,206.64181 60.715608,214.1528 60.987535,218.59363 C 60.909925,230.36486 61.015033,242.13593 61.15625,253.90625 C 51.581253,252.64992 42.017854,250.04728 32.46875,249.25 C 27.114473,249.89853 26.020444,258.47264 31.8125,259.40625 C 35.525642,260.71693 48.695912,260.93997 46.109623,262.86232 C 37.918282,266.59447 28.833458,268.91421 21,273.125 C 16.790886,277.25227 22.634067,284.62634 27.715107,281.39235 C 37.749039,277.57373 47.685695,273.50584 57.6875,269.59375 C 56.739803,275.03791 51.928188,280.13066 52.9375,285.71875 C 55.114414,291.36681 64.539896,290.15632 64.71875,283.625 C 67.233932,277.10179 69.513897,270.48274 71.96875,263.9375 C 80.943527,259.94859 90.671187,257.18892 99.375,252.875 C 103.7319,249.51341 100.10535,241.97936 94.6875,243.8125 C 87.268959,246.47319 79.963408,249.57535 72.65625,252.4375 C 72.452301,238.6659 72.457146,224.85811 72.5,211.15625 C 72.072462,207.98578 69.04641,205.76409 65.90625,206.03125 z"
       style="fill:#ff7400;fill-opacity:1;fill-rule:evenodd;stroke:#000000;stroke-width:2.91788077;stroke-linecap:round;stroke-linejoin:miter;stroke-miterlimit:4;stroke-dasharray:none;stroke-opacity:1" />
    <g
       style="fill:#d24e11;fill-opacity:1"
       transform="matrix(0.8552717,0.5181799,-0.5181799,0.8552717,22.995014,-124.97888)"
       id="g3979">
      <path
         style="fill:#d24e11;fill-opacity:1;fill-rule:nonzero;stroke:#000000;stroke-width:4.13691044;stroke-linecap:round;stroke-linejoin:round;stroke-miterlimit:4;stroke-opacity:1"
         d="M 280.85,64.552053 C 278.43463,53.942572 273.84414,49.586623 271.18353,49.491388 C 264.82356,48.575421 259.56695,51.986115 253.98938,54.039854 C 251.05773,55.972788 247.14224,57.273611 247.92692,68.247469 C 249.29829,78.482987 253.0261,89.986431 256.45186,100.08663 C 263.56409,120.61232 273.61077,137.03919 280.05449,136.19117 C 288.4221,135.65356 289.52087,112.01826 285.20763,85.827817 C 284.09668,78.92259 282.6277,71.739177 280.85,64.552053 z"
         id="path3977" />
      <path
         id="path3971"
         d="M 304.51499,66.941338 C 304.95227,56.069178 301.65772,50.666138 299.11417,49.879818 C 293.21368,47.335728 287.2491,49.256308 281.32884,49.783198 C 277.99432,50.884018 273.87504,51.117868 271.76849,61.916188 C 270.421,72.154878 271.01736,84.232548 271.68837,94.876778 C 273.19717,116.54729 278.60846,135.02689 285.05018,135.88999 C 293.2681,137.55485 300.49729,115.02546 303.1689,88.617018 C 303.89863,81.661168 304.35533,74.343328 304.51499,66.941338 z"
         style="fill:#d24e11;fill-opacity:1;fill-rule:nonzero;stroke:#000000;stroke-width:4.13691044;stroke-linecap:round;stroke-linejoin:round;stroke-miterlimit:4;stroke-opacity:1" />
      <path
         style="fill:#d24e11;fill-opacity:1;fill-rule:nonzero;stroke:#000000;stroke-width:4.13691044;stroke-linecap:round;stroke-linejoin:round;stroke-miterlimit:4;stroke-opacity:1"
         d="M 326.79174,71.712852 C 329.48479,61.170435 327.38835,55.199519 325.06447,53.900473 C 319.82358,50.182773 313.58974,50.818395 307.68963,50.100152 C 304.19893,50.482017 300.12134,49.852425 295.81104,59.974807 C 292.35975,69.708003 290.42647,81.644845 288.86488,92.195263 C 285.82521,113.70452 287.26725,132.90603 293.38774,135.09241 C 301.07839,138.43305 312.84323,117.90445 320.95876,92.632304 C 323.12183,85.981175 325.09328,78.919111 326.79174,71.712852 z"
         id="path3975" />
    </g>
    <path
       id="path3492"
       d="M 155.46875,205.34375 C 148.62447,206.25157 149.75516,214.51204 150.28125,219.46875 C 149.83318,230.18261 150.23111,240.99778 149.9375,251.75 C 141.78762,249.15726 133.98731,244.05745 125.46875,243.03125 C 119.00979,243.80513 120.78016,253.72651 126.6875,253.75 C 134.58449,257.4236 144.04629,259.56442 150.97459,264.1869 C 154.39356,271.82292 155.78959,280.70892 160.4375,287.625 C 164.69594,291.1987 172.54888,285.84369 169.21875,280.71875 C 168.01933,275.86405 161.11292,265.14792 170.42962,271.08728 C 179.64889,274.29604 188.49212,279.09937 197.9375,281.375 C 204.10962,281.44184 204.74614,271.36137 198.5,270.90625 C 190.54167,267.75 182.58333,264.59375 174.625,261.4375 C 180.72582,259.52064 188.40332,260.95352 193.65625,257.03125 C 197.32057,252.91024 191.46767,246.52969 186.8125,248.90625 C 178.35417,250.34375 169.89583,251.78125 161.4375,253.21875 C 161.35714,238.32162 162.24151,223.20958 161.15625,208.4375 C 160.16672,206.34612 157.74582,205.11493 155.46875,205.34375 z"
       style="fill:#ff7400;fill-opacity:1;fill-rule:evenodd;stroke:#000000;stroke-width:2.91788077;stroke-linecap:round;stroke-linejoin:miter;stroke-miterlimit:4;stroke-dasharray:none;stroke-opacity:1" />
    <path
       style="fill:#e45513;fill-opacity:1;fill-rule:nonzero;stroke:#000000;stroke-width:4;stroke-linecap:round;stroke-linejoin:round;stroke-miterlimit:4;stroke-dasharray:none;stroke-opacity:1"
       id="path3885"
       d="M 220.439,138.81565 C 220.45703,199.32388 171.41049,248.38506 110.90225,248.38506 C 50.394022,248.38506 1.3474749,199.32388 1.3655076,138.81565 C 1.3474749,78.30742 50.394022,29.246247 110.90225,29.246247 C 171.41049,29.246247 220.45703,78.30742 220.439,138.81565 z" />
    <path
       style="fill:#000000;fill-opacity:0.31372549;fill-rule:nonzero;stroke:none;stroke-width:4;stroke-linecap:round;stroke-linejoin:round;stroke-miterlimit:4;stroke-dasharray:none;stroke-opacity:1"
       id="path3887"
       d="M 213.81672,101.23479 C 213.89351,102.9164 213.94172,104.62808 213.94172,106.32854 C 213.94172,166.79282 164.87476,215.85979 104.41047,215.85979 C 57.1483,215.85979 16.81927,185.86052 1.4729701,143.89104 C 4.1264801,202.00323 52.1466,248.35979 110.91047,248.35979 C 171.37476,248.35979 220.44172,199.29282 220.44172,138.82854 C 220.44172,125.62636 218.10357,112.95851 213.81672,101.23479 z" />
    <path
       sodipodi:nodetypes="ccss"
       id="path4090"
       d="M 115.83546,-14.331241 L 110.90709,32.578935 C 121.4944,22.125127 132.70588,12.426103 147.53046,8.3081954 C 188.86641,-3.173884 135.84839,-40.866542 115.83546,-14.331241 z"
       style="fill:#ff0000;fill-rule:evenodd;stroke:#000000;stroke-width:2.70000005;stroke-linecap:round;stroke-linejoin:round;stroke-miterlimit:4;stroke-dasharray:none;stroke-opacity:1" />
    <path
       style="fill:#ff0000;fill-rule:evenodd;stroke:#000000;stroke-width:2.94004321;stroke-linecap:round;stroke-linejoin:round;stroke-miterlimit:4;stroke-dasharray:none;stroke-opacity:1"
       d="M 100.27329,-23.685657 L 109.16526,32.209445 C 116.12907,16.627245 123.89912,1.7126317 136.68594,-7.935394 C 172.3399,-34.837279 111.48167,-60.978159 100.27329,-23.685657 z"
       id="path4092"
       sodipodi:nodetypes="ccss" />
    <path
       d="M 183.26979,70.760814 C 183.28203,111.84153 149.98297,145.15052 108.90225,145.15052 C 67.821539,145.15052 34.522479,111.84153 34.534722,70.760814 C 34.522479,29.6801 67.821539,-3.628889 108.90225,-3.628889 C 149.98297,-3.628889 183.28203,29.6801 183.26979,70.760814 z"
       id="path3984"
       style="fill:#e45513;fill-opacity:1;fill-rule:nonzero;stroke:#000000;stroke-width:2.71571088;stroke-linecap:round;stroke-linejoin:round;stroke-miterlimit:4;stroke-dasharray:none;stroke-opacity:1" />
    <g
       transform="matrix(1.3870291,0,0,1.3870291,-38.098939,-19.738164)"
       id="g4080">
      <path
         style="fill:#ffffff;fill-opacity:1;fill-rule:nonzero;stroke:#000000;stroke-width:2.70958376;stroke-linecap:round;stroke-linejoin:round;stroke-miterlimit:4;stroke-dasharray:none;stroke-opacity:1"
         id="path4014"
         d="M 142.81901,56.166743 C 142.82154,64.64703 135.94762,71.522993 127.46734,71.522993 C 118.98705,71.522993 112.11314,64.64703 112.11566,56.166743 C 112.11314,47.686462 118.98705,40.810499 127.46734,40.810499 C 135.94762,40.810499 142.82154,47.686462 142.81901,56.166743 z" />
      <path
         style="fill:#000000;fill-opacity:1;fill-rule:nonzero;stroke:none;stroke-width:47.66669083;stroke-linecap:round;stroke-linejoin:round;stroke-miterlimit:4;stroke-dasharray:none;stroke-opacity:1"
         id="path4016"
         d="M 129.17308,58.876327 C 129.17392,61.703087 126.88262,63.995077 124.05586,63.995077 C 121.2291,63.995077 118.93779,61.703087 118.93864,58.876327 C 118.93779,56.049567 121.2291,53.757584 124.05586,53.757584 C 126.88262,53.757584 129.17392,56.049567 129.17308,58.876327 z" />
    </g>
    <g
       transform="matrix(1.3870291,0,0,1.3870291,-46.743288,-19.738164)"
       id="g4084">
      <path
         style="fill:#ffffff;fill-opacity:1;fill-rule:nonzero;stroke:#000000;stroke-width:2.70958376;stroke-linecap:round;stroke-linejoin:round;stroke-miterlimit:4;stroke-dasharray:none;stroke-opacity:1"
         id="path4012"
         d="M 107.09843,56.166743 C 107.10095,64.64703 100.22703,71.522993 91.746753,71.522993 C 83.266466,71.522993 76.392549,64.64703 76.395076,56.166743 C 76.392549,47.686462 83.266466,40.810499 91.746753,40.810499 C 100.22703,40.810499 107.10095,47.686462 107.09843,56.166743 z" />
      <path
         style="fill:#000000;fill-opacity:1;fill-rule:nonzero;stroke:none;stroke-width:47.66669083;stroke-linecap:round;stroke-linejoin:round;stroke-miterlimit:4;stroke-dasharray:none;stroke-opacity:1"
         id="path4018"
         d="M 100.70189,58.876327 C 100.70273,61.703087 98.411429,63.995077 95.584669,63.995077 C 92.757909,63.995077 90.466603,61.703087 90.46745,58.876327 C 90.466603,56.049567 92.757909,53.757584 95.584669,53.757584 C 98.411429,53.757584 100.70273,56.049567 100.70189,58.876327 z" />
    </g>
    <path
       sodipodi:nodetypes="ccsscssc"
       d="M 181.64113,45.546669 L 179.89582,48.202919 C 180.12748,51.278399 180.2158,54.405559 180.2158,57.577919 C 180.2158,102.75241 135.1668,140.24408 104.03304,135.32894 C 78.108742,131.23624 47.16228,115.66602 33.231668,82.827919 C 40.320705,123.0742 86.450311,152.90134 108.51268,152.66815 C 157.42611,152.15656 184.69542,117.53362 184.69542,72.359169 C 184.69542,62.967619 183.69442,53.948909 181.64113,45.546669 z"
       id="path4022"
       style="fill:#000000;fill-opacity:0.31372549;fill-rule:nonzero;stroke:none;stroke-width:4;stroke-linecap:round;stroke-linejoin:round;stroke-miterlimit:4;stroke-opacity:1" />
    <path
       style="fill:#ff0000;fill-rule:evenodd;stroke:#000000;stroke-width:2.70000005;stroke-linecap:round;stroke-linejoin:round;stroke-miterlimit:4;stroke-dasharray:none;stroke-opacity:1"
       d="M 87.938034,107.04471 L 106.37018,150.46256 L 126.63494,111.47949 C 119.61572,93.765437 98.342967,91.524774 87.938034,107.04471 z"
       id="path3454"
       sodipodi:nodetypes="cccc" />
    <path
       sodipodi:nodetypes="cccc"
       id="path4088"
       d="M 83.258279,94.321445 L 95.969494,144.75137 L 128.5598,108.39546 C 123.97248,87.941966 99.026644,80.413907 83.258279,94.321445 z"
       style="fill:#ffce00;fill-opacity:1;fill-rule:evenodd;stroke:#000000;stroke-width:3.09895611;stroke-linecap:round;stroke-linejoin:round;stroke-miterlimit:4;stroke-dasharray:none;stroke-opacity:1" />
    <path
       sodipodi:nodetypes="ccss"
       id="path4094"
       d="M 80.724942,-28.776403 L 108.03784,32.946462 C 109.31434,14.874119 111.57616,-2.525188 120.34614,-14.491835 C 144.7998,-47.858815 78.641083,-71.528222 80.724942,-28.776403 z"
       style="fill:#ff0000;fill-rule:evenodd;stroke:#000000;stroke-width:3.06173801;stroke-linecap:round;stroke-linejoin:round;stroke-miterlimit:4;stroke-dasharray:none;stroke-opacity:1" />
  </g>
</svg>
