<?xml version="1.0" encoding="utf-8"?>
<!-- Generator: Adobe Illustrator 19.1.0, SVG Export Plug-In . SVG Version: 6.00 Build 0)  -->
<svg version="1.1" id="Layer_1" xmlns="http://www.w3.org/2000/svg" xmlns:xlink="http://www.w3.org/1999/xlink" x="0px" y="0px"
	 viewBox="0 0 94 94" style="enable-background:new 0 0 94 94;" xml:space="preserve">
<style type="text/css">
	.st0{fill:#10687A;}
	.st1{fill:#0098BA;}
	.st2{fill:#00BEE8;}
	.st3{fill:#002E38;}
	.st4{fill:#0C4E5C;}
</style>
<g>
	<path class="st0" d="M55,93H39c-21,0-38-17-38-38V39C1,18,18,1,39,1h16c21,0,38,17,38,38v16C93,75.9,76,93,55,93z"/>
	<g>
		<path class="st1" d="M71.9,78.5c-3.7,4.8-7.1,0.6-13.2,0.6c-6,0-6,2-12,2c-6,0-6-2-12-2s-9.5,4.2-13.2-0.6
			c-4.8-6.2,2.6-8.7,2.6-16.5c0-7.8-2.9-7.8-2.9-15.6c0-7.8,2.9-7.8,2.9-15.6s-7.3-10.3-2.6-16.5c3.7-4.8,7.1-0.6,13.2-0.6
			c6,0,6-1.7,12-1.7c6,0,6,1.7,12,1.7c6,0,9.5-4.2,13.2,0.6c4.8,6.2-2.6,8.7-2.6,16.5c0,7.8,2.9,7.8,2.9,15.6
			c0,7.8-4.6,8.3-2.8,15.9C71.3,70.9,76.7,72.4,71.9,78.5z"/>
		<g>
			<path class="st2" d="M26.6,45.7c1.5-6.3,6.7-9,6.6-14.6c-0.1-5.2-0.8-11.7,6-11.4c5.4,0.2,5.7,4.3,4.2,8.4
				c-2.2,5.9-8.8,7.3-10.2,14.2c-1.2,6,3.4,15.4,2.8,21.4c-0.4,3.3-2.5,13.5-8.1,13.9c-4.6,0.4-3.8-5.9-1-8S24.8,53.1,26.6,45.7z"/>
		</g>
		<g>
			<path class="st2" d="M67.2,45.1c-1.5-6.3-6.7-9-6.6-14.6c0.1-5.2,0.8-11.7-6-11.4c-5.4,0.2-5.7,4.3-4.2,8.4
				c2.2,5.9,8.8,7.3,10.2,14.2c1.2,6-3.4,15.4-2.8,21.4c0.4,3.3,2.5,13.5,8.1,13.9c4.6,0.4,3.8-5.9,1-8S69,52.6,67.2,45.1z"/>
		</g>
		<path class="st0" d="M38,26.1c-0.7,0-1.2-0.5-1.2-1.2s0.5-1.2,1.2-1.2c0.7,0,1.2,0.5,1.2,1.2S38.7,26.1,38,26.1z M38,24.3
			c-0.3,0-0.5,0.2-0.5,0.5c0,0.3,0.2,0.5,0.5,0.5c0.3,0,0.5-0.2,0.5-0.5C38.5,24.6,38.3,24.3,38,24.3z"/>
		<circle class="st0" cx="55.4" cy="24.3" r="3.4"/>
		<circle class="st3" cx="55.4" cy="24.3" r="1.5"/>
		<g>
			<path class="st2" d="M27.1,15.1c0.7,0.3,3.4,1.7,3.2,2.3c-0.2,0.5-0.8,0.6-1.3,0.8c-1,0.3-2,1-2.3,2c-0.2,0.9,0.1,1.8,0.3,2.7
				c0.2,0.9,0.2,2-0.4,2.6c-0.2,0.2-0.5,0.3-0.7,0.2c-0.2-0.1-0.3-0.3-0.3-0.5c-0.5-1.4-0.7-2.8-1.5-4.1c-0.4-0.6-0.9-1.1-1.1-1.7
				c-0.6-1.4,0.1-3.1,1.4-3.8C25.7,14.9,27.1,15.1,27.1,15.1z"/>
		</g>
		<g>
			<path class="st2" d="M66.2,15.1c-0.7,0.3-3.4,1.7-3.2,2.3c0.2,0.5,0.8,0.6,1.3,0.8c1,0.3,2,1,2.3,2c0.2,0.9-0.1,1.8-0.3,2.7
				c-0.2,0.9-0.2,2,0.4,2.6c0.2,0.2,0.5,0.3,0.7,0.2c0.2-0.1,0.3-0.3,0.3-0.5c0.5-1.4,0.7-2.8,1.5-4.1c0.4-0.6,0.9-1.1,1.1-1.7
				c0.6-1.4-0.1-3.1-1.4-3.8C67.7,14.9,66.2,15.1,66.2,15.1z"/>
		</g>
		<path class="st3" d="M43.5,48.7c1.7,0.1,4.6,0.1,4.9-1.9c0.2-1.3,1.8-1.4,2.2-0.6c0.4,0.9-1,2.9-2.4,3.3
			C46.7,49.9,43.2,48.7,43.5,48.7z"/>
		<circle class="st3" cx="38" cy="24.9" r="0.8"/>
	</g>
	<g>
		<path class="st4" d="M69.3,30.9c0,7.8,2.9,7.8,2.9,15.6c0,7.8-4.6,8.3-2.8,15.9c1.9,8.5,7.3,10,2.5,16.2
			c-3.7,4.8-7.1,0.6-13.2,0.6c-6,0-6,2-12,2c-6,0-6-2-12-2c-4.9,0-8.2,2.8-11.2,1.2L36,93c1.1,0.1,18.2,0,18.2,0
			C75.9,93,93,76.4,93,54.6V42.2L71.6,14.9C75.5,20.7,69.3,23.3,69.3,30.9z"/>
	</g>
</g>
</svg>
