<?xml version="1.0" encoding="utf-8"?>
<!-- Generator: Adobe Illustrator 19.1.0, SVG Export Plug-In . SVG Version: 6.00 Build 0)  -->
<svg version="1.1" id="Layer_1" xmlns="http://www.w3.org/2000/svg" xmlns:xlink="http://www.w3.org/1999/xlink" x="0px" y="0px"
	 viewBox="0 0 94 94" style="enable-background:new 0 0 94 94;" xml:space="preserve">
<style type="text/css">
	.st0{fill:#B57100;}
	.st1{fill:#E69C07;}
	.st2{fill:#573C03;}
	.st3{fill:#FFB700;}
	.st4{fill:#8A5600;}
</style>
<g>
	<path class="st0" d="M93,55c0,21-17,38-38,38H39C18,93,1,76,1,55V39C1,18,18,1,39,1h16c21,0,38,17,38,38V55z"/>
	<g>
		<path class="st1" d="M69.5,80.2c-6.1,4.7-9.8-5.8-17.4-0.9c-4.1,2.7-14.3,4-18.3,1.5c-8-5-15.9-56.2-6.2-65.9s38-4.1,36,1.5
			c-6.5,18.4,8.8,21.1-0.6,24.2C48,45.7,79,72.8,69.5,80.2z"/>
		<path class="st2" d="M37.8,21.6c0,0-0.6,1-1.7,1.6c-1.1,0.6-2.3,0.4-2.3,0.4s0.6-1,1.7-1.6S37.8,21.6,37.8,21.6z"/>
		<path class="st3" d="M33.5,14.6c0,0,2,3.9-1.3,4c-2,0.1-2.3,4.4-2.2,5.3s1.2,0,1.8-1.7s2.5-1.8,3.5-2.7
			C36.4,18.5,35.1,14.5,33.5,14.6z"/>
		<path class="st3" d="M36.9,78.6c6.5,0.9,13.8-2.2,11.5-4.1c-2.5-2.2-15.1-23-15.1-36.6C28.7,49.4,30.4,77.7,36.9,78.6z"/>
		<path class="st2" d="M46.7,52.8c0,0,0.7-3.2,5.1-3.3c1.4,0,1,1.6,1.4,2.5C56,57.4,56.1,59.5,46.7,52.8z"/>
		<path class="st3" d="M37.2,12.7c0,0,7.7-2.2,12.4-1.5c4.8,0.7,10.9,3,10.9,3s-3,11.7-8.1,6.9S44.3,12.2,37.2,12.7z"/>
	</g>
	<path class="st4" d="M93,55.4V44.1L62.7,14.4c0.6,0.6,1,1.3,0.7,2c-6.5,18.4,8.9,21.1-0.5,24.2c-15.1,5,16,32.2,6.5,39.6
		c-6.1,4.7-9.8-5.8-17.4-0.9c-4.1,2.7-14.3,4-18.3,1.5c-0.1,0-0.1,0.1-0.2,0.1L45.5,93h9.2C75.7,93,93,76.5,93,55.4z"/>
</g>
</svg>
