<?xml version="1.0" encoding="utf-8"?>
<!-- Generator: Adobe Illustrator 19.1.0, SVG Export Plug-In . SVG Version: 6.00 Build 0)  -->
<svg version="1.1" id="Layer_1" xmlns="http://www.w3.org/2000/svg" xmlns:xlink="http://www.w3.org/1999/xlink" x="0px" y="0px"
	 viewBox="0 0 94 94" style="enable-background:new 0 0 94 94;" xml:space="preserve">
<style type="text/css">
	.st0{fill:#4B6319;}
	.st1{fill:#799E29;}
	.st2{fill:#99CC33;}
	.st3{fill:#618021;}
	.st4{fill:#27330D;}
	.st5{fill:#324212;}
</style>
<g>
	<path class="st0" d="M55,93H39C18,93,1,76,1,55V39C1,18,18,1,39,1h16c21,0,38,17,38,38v16C93,76,76,93,55,93z"/>
	<g>
		<path class="st1" d="M73.5,44.5c5.2-5.5,3.7-18.9-6.4-21.6c-3-0.8-5.6-1.9-3.8-3.5c1.8-1.6,2.2-7.3-2.4-8.5
			c-4.6-1.1-6.4,0.9-13.6,0.9s-9-2-13.6-0.9c-4.6,1.2-4.2,6.9-2.4,8.5c1.8,1.6-0.8,2.7-3.8,3.5C17.4,25.6,15.9,39,21.1,44.5
			c6.9,7.4,10.3,3.3,12.1,11.6c0.7,3.4-2.5,4.2-2.3,9.2c0.2,4.3,5.8,5,6.1,8.2c0.1,1.7-2.7,3.9-6,1.7c-3.4-2.2-5.3,3-4.2,5
			c0.8,1.4,13.6,3.2,20.5,3.2s19.8-1.8,20.5-3.2c1.1-2-1-7.8-4.4-5.6c-3.4,2.2-4.6-0.8-4.4-2.5c0.3-3.2,5.2-2.8,5.2-7.1
			s-2.1-5.8-1.3-9.4C64.5,47.5,66.5,51.9,73.5,44.5z"/>
		<path class="st2" d="M35.9,38.8c1.3-4.4,0.2-12.9-5.5-13.8c-10.7-1.7-12.3,12.3-7.5,18.2c2.8,3.5,7.4,4.5,10.4,7.4
			c1.2,1.2,2,2.6,2.2,4.3c0.1,1.2-1.4,4.3-0.9,5.1c1.7,3.1,2.9-0.8,3.1-1.8c0.3-1.5-0.2-5.4-0.7-8.6C36.5,46.1,34.5,43.6,35.9,38.8z
			"/>
		<path class="st2" d="M58.8,12.7c1.5-0.3,2.6,1.4,2.3,3.1c-0.2,1.4-1.3,2.3-1.4,3.1c-0.2,1.4,1.1,2.8,2.2,3.5s2.4,0.9,3.7,1.2
			c3.4,0.9,6.7,3.3,8.1,7c1.8,4.8-0.1,11.2-4,14.1c-2,1.5-5.1,3-7,4.6c-2,1.7-3.7,6.8-0.7,13.7c1.7,4-4.4,4-4.8,7.5
			c-0.2,1.6,0.1,3.9,1.1,5c1.1,1.1,3.6,1.5,6,0.1c1.6-0.9,2.8,2,2,2.8c-2.5,2.8-13.7,2.9-14.7,2.8c-4.4-0.4-6.3-2.8-6.4-4
			c-0.6-4.9,4.9-4.6,5.4-11.1c0.4-4.8-3.9-7.8-3.8-12.6c0.4-10.8,11-14.7,9.9-22.3c-0.6-4.5-6.9-12.6-14-13.4
			C36,17,36.9,12.8,40,13.1C51.4,14.4,56.8,13.1,58.8,12.7z"/>
		<g>
			<ellipse class="st3" cx="28.5" cy="36.2" rx="4.8" ry="4.8"/>
			<ellipse class="st4" cx="28.5" cy="36.2" rx="2.1" ry="2.1"/>
		</g>
		<g>
			<ellipse class="st3" cx="66" cy="36.2" rx="4.8" ry="4.8"/>
			<ellipse class="st4" cx="66" cy="36.2" rx="2.4" ry="2.4"/>
		</g>
	</g>
	<g>
		<path class="st5" d="M64,13.5c1,2.2,0.5,5-0.7,6c-1.8,1.6,0.8,2.7,3.8,3.5c10.1,2.7,11.5,16.1,6.4,21.6c-6.9,7.4-9,3-10.6,11
			c-0.7,3.6,1.3,5.1,1.3,9.4s-5,3.9-5.2,7.1c-0.1,1.7,1.1,4.7,4.4,2.5c3.4-2.2,5.5,3.6,4.4,5.6c-0.8,1.4-13.6,3.2-20.5,3.2
			c-6.3,0-17.7-1.5-20.1-2.8L39.4,93c0,0,15.5,0,15.5,0C76,93,93,75.6,93,54.4v-12L64,13.5z"/>
	</g>
</g>
</svg>
